<svg id="SvgjsSvg1011" width="288" height="288" xmlns="http://www.w3.org/2000/svg" version="1.1" xmlns:xlink="http://www.w3.org/1999/xlink" xmlns:svgjs="http://svgjs.com/svgjs"><defs id="SvgjsDefs1012"></defs><g id="SvgjsG1013"><svg xmlns="http://www.w3.org/2000/svg" width="288" height="288" fill="none" viewBox="0 0 512 342"><path fill="#eaeaea" d="M508.875 163.125L348.875 3.12525C344.708 -1.04175 337.958 -1.04175 333.792 3.12525C329.625 7.29225 329.625 14.0423 333.792 18.2083L475.584 160H10.667C4.771 160 0 164.771 0 170.667C0 176.563 4.771 181.334 10.667 181.334H475.584L333.792 323.125C329.625 327.292 329.625 334.042 333.792 338.208C335.875 340.291 338.605 341.333 341.334 341.333C344.063 341.333 346.792 340.291 348.876 338.208L508.876 178.208C513.042 174.042 513.042 167.292 508.875 163.125Z" class="color333 svgShape"></path></svg></g></svg>