<svg id="SvgjsSvg1001" width="288" height="288" xmlns="http://www.w3.org/2000/svg" version="1.1" xmlns:xlink="http://www.w3.org/1999/xlink" xmlns:svgjs="http://svgjs.com/svgjs"><defs id="SvgjsDefs1002"></defs><g id="SvgjsG1008"><svg xmlns="http://www.w3.org/2000/svg" width="288" height="288" version="1.0" viewBox="0 0 75 75"><polygon fill="#365a6b" stroke="#51c6fc" stroke-linejoin="round" stroke-width="5" points="39.389 13.769 22.235 28.606 6 28.606 6 47.699 21.989 47.699 39.389 62.75 39.389 13.769" class="color111 svgShape colorStroke111 svgStroke"></polygon><path fill="none" stroke="#51c6fc" stroke-linecap="round" stroke-width="5" d="M48.128 49.03C50.057 45.934 51.19 42.291 51.19 38.377 51.19 34.399 50.026 30.703 48.043 27.577M55.082 20.537C58.777 25.523 60.966 31.694 60.966 38.377 60.966 44.998 58.815 51.115 55.178 56.076M61.71 62.611C66.977 55.945 70.128 47.531 70.128 38.378 70.128 29.161 66.936 20.696 61.609 14.01" class="colorStroke111 svgStroke"></path></svg></g></svg>